<svg id="visual" viewBox="0 0 900 600" width="900" height="600" xmlns="http://www.w3.org/2000/svg" xmlns:xlink="http://www.w3.org/1999/xlink" version="1.1"><rect x="0" y="0" width="900" height="600" fill="#001220"></rect><path d="M0 354L21.5 369.5C43 385 86 416 128.8 416.3C171.7 416.7 214.3 386.3 257.2 384.8C300 383.3 343 410.7 385.8 425.7C428.7 440.7 471.3 443.3 514.2 442.2C557 441 600 436 642.8 435.7C685.7 435.3 728.3 439.7 771.2 430.2C814 420.7 857 397.3 878.5 385.7L900 374L900 601L878.5 601C857 601 814 601 771.2 601C728.3 601 685.7 601 642.8 601C600 601 557 601 514.2 601C471.3 601 428.7 601 385.8 601C343 601 300 601 257.2 601C214.3 601 171.7 601 128.8 601C86 601 43 601 21.5 601L0 601Z" fill="#141413"></path><path d="M0 432L21.5 436.3C43 440.7 86 449.3 128.8 453.7C171.7 458 214.3 458 257.2 454.8C300 451.7 343 445.3 385.8 437.8C428.7 430.3 471.3 421.7 514.2 418.7C557 415.7 600 418.3 642.8 425.3C685.7 432.3 728.3 443.7 771.2 452.8C814 462 857 469 878.5 472.5L900 476L900 601L878.5 601C857 601 814 601 771.2 601C728.3 601 685.7 601 642.8 601C600 601 557 601 514.2 601C471.3 601 428.7 601 385.8 601C343 601 300 601 257.2 601C214.3 601 171.7 601 128.8 601C86 601 43 601 21.5 601L0 601Z" fill="#1f1c19"></path><path d="M0 487L21.5 489.7C43 492.3 86 497.7 128.8 499.3C171.7 501 214.3 499 257.2 491.3C300 483.7 343 470.3 385.8 466.5C428.7 462.7 471.3 468.3 514.2 469.5C557 470.7 600 467.3 642.8 467.5C685.7 467.7 728.3 471.3 771.2 476.2C814 481 857 487 878.5 490L900 493L900 601L878.5 601C857 601 814 601 771.2 601C728.3 601 685.7 601 642.8 601C600 601 557 601 514.2 601C471.3 601 428.7 601 385.8 601C343 601 300 601 257.2 601C214.3 601 171.7 601 128.8 601C86 601 43 601 21.5 601L0 601Z" fill="#2c2421"></path><path d="M0 481L21.5 482.2C43 483.3 86 485.7 128.8 490.8C171.7 496 214.3 504 257.2 507.8C300 511.7 343 511.3 385.8 509.5C428.7 507.7 471.3 504.3 514.2 505C557 505.7 600 510.3 642.8 512.8C685.7 515.3 728.3 515.7 771.2 519.8C814 524 857 532 878.5 536L900 540L900 601L878.5 601C857 601 814 601 771.2 601C728.3 601 685.7 601 642.8 601C600 601 557 601 514.2 601C471.3 601 428.7 601 385.8 601C343 601 300 601 257.2 601C214.3 601 171.7 601 128.8 601C86 601 43 601 21.5 601L0 601Z" fill="#3a2c2c"></path><path d="M0 572L21.5 569.3C43 566.7 86 561.3 128.8 557.2C171.7 553 214.3 550 257.2 549.2C300 548.3 343 549.7 385.8 554C428.7 558.3 471.3 565.7 514.2 569.2C557 572.7 600 572.3 642.8 566.8C685.7 561.3 728.3 550.7 771.2 546.5C814 542.3 857 544.7 878.5 545.8L900 547L900 601L878.5 601C857 601 814 601 771.2 601C728.3 601 685.7 601 642.8 601C600 601 557 601 514.2 601C471.3 601 428.7 601 385.8 601C343 601 300 601 257.2 601C214.3 601 171.7 601 128.8 601C86 601 43 601 21.5 601L0 601Z" fill="#45343b"></path></svg>